<?xml version="1.0" encoding="utf-8"?>
<!-- Generator: Adobe Illustrator 26.0.3, SVG Export Plug-In . SVG Version: 6.00 Build 0)  -->
<svg version="1.1" id="Camada_1" xmlns="http://www.w3.org/2000/svg" xmlns:xlink="http://www.w3.org/1999/xlink" x="0px" y="0px"
	 viewBox="0 0 105.1 179.5" style="enable-background:new 0 0 105.1 179.5;" xml:space="preserve">
<style type="text/css">
	.st0{fill:#FEDF29;}
</style>
<path class="st0" d="M71,25.7c0-1.3-0.7-6.7-2.1-16.1C68.5,7.6,67.2,6,65,5c-2.2-0.9-3.2-1.6-3.2-1.8L61.9,0c-0.8-0.1-1.8,0-3.2,0.4
	c-1.2,0.5-1.9,0.7-1.9,0.7l-6.7,0.2c-1.1,0-1.7,0-2-0.1c-0.7-0.1-1.8-0.4-3.2-1c-0.7,0.8-1.3,2.1-1.8,3.9c0.4,0.3,0.9,0.5,1.7,0.5
	c2.9,0.2,4.6,0.4,4.9,0.5c1.2,0.4,2.4,0.8,3.6,1.4c1.5,0.6,2.3,1.2,2.3,1.6c0,0.6-0.6,1.4-1.9,2.5c-1.3,1.1-2,1.9-2,2.6l0.4,4.3
	c0,1.8-0.5,3-1.6,3.6c-1.1,0.7-1.7,1.9-1.8,3.7c-0.1,0.6-0.9,1.3-2.5,2c-1.7,0.8-2.7,1.7-3,2.9c-1.1,3.7-3.2,5.7-6.2,5.9
	c-2.6,0.2-3.9,1.4-3.9,3.8l0.4,3.9c0,1.3-0.9,2.6-2.7,3.9c-1.9,1.2-2.8,2.4-2.8,3.5c0,0.2,1,1.3,3.1,3.2c2,2.2,3,3.9,3,5.1
	c0,0.9-0.4,2.4-1.3,4.5c-0.7,1.7-1.1,3.1-1.3,4.3c-0.1,0.3-0.2,0.5-0.4,0.8c-1,2.3-1.8,4-2.3,4.9c-0.8,1.8-2.2,3.4-4,4.8
	c-3.6,2.6-6,5.1-7.2,7.5c-1,2.9-2,5.3-3.2,7.2c-2.2,3.3-3.5,5.5-4,6.6c-0.1,0.1-0.1,0.2-0.2,0.4c-0.7,1.5-0.9,3.4-0.7,5.7
	c0.1,0.5-0.8,2.3-2.5,5.4c-2.2,4.2-3.4,6.7-3.8,7.5c-0.6,1.3-1.3,3.2-2,5.8c-0.7,2.5-1.1,4-1.1,4.7l1.1,5.8c0.6,3.1,1.1,5.3,1.4,6.6
	c0.1,0.3,0.2,0.6,0.3,0.8v0.1l0.1,0.1v0.2c0.5,3.8,0.8,7,0.8,9.5c0,3.5-0.2,6.2-0.6,8.1c-0.5,1.8-0.7,3.1-0.7,3.9
	c0,0.4,0.2,0.9,0.7,1.4c0.1,0.1,0.1,0.1,0.2,0.2c0.7-0.6,1.3-1.3,1.9-2.1c1-1.2,2-2.6,3.1-4.1s2.2-2.3,3.4-2.5v1
	c-1.6,3.7-2.5,5.9-2.6,6.6v1c0.4,0,1.1,0.3,2.3,0.9c1.3,0.6,2.2,1,2.6,1.1c0.7,0.1,1.5,0,2.5-0.1c0.7-0.1,1.3,0.2,1.7,0.8
	c1.1,1.5,2.7,2.9,5.1,4c1.3,0.6,3.1,1.4,5.4,2.4c-0.3-0.8-0.4-1.4-0.4-1.7c0-0.8,0.6-2.3,1.9-4.4c1.2-2,1.8-3,1.9-3
	c0.4,0,1,0.4,2,1.3c1.1,0.9,1.8,1.3,2.3,1.3c0.6,0,1.3-0.4,1.8-1.1c0.6-0.8,0.8-1.5,0.6-2.2c3.8,1.5,6.3,3.5,7.5,6.2
	c0.9,2,1.6,3.4,2.2,4.2h1.8c0.1-0.4,0.5-0.9,1.2-1.6c0.6-0.6,1-0.9,1.1-0.9c0.2,0,0.6,0.2,1.1,0.7c0.7,0.5,1.2,0.8,1.5,1h3.4
	c0.6,0,1.7,0.8,3.2,2.3c0.8,0.8,1.6,1.8,2.5,2.8h0.4c-0.2-4-0.1-6.9,0.3-8.9v-0.2c0.4,0.2,1.6,1.3,3.8,3.2c1.6,1.5,2.9,2.3,3.8,2.3
	s2.3-0.9,3.9-2.7c1.7-1.8,2.9-2.7,3.6-2.8c2.7-0.1,5.2-0.5,7.5-1.2c1.1-0.4,3.2-0.6,6.1-0.7c0.1-0.7,0.2-1.5,0.2-2.4
	c0.1-0.9,0.1-1.7,0.1-2.4c0-0.9,0.2-1.9,0.5-2.9c0.4-0.9,0.5-1.6,0.5-1.9c0-0.6-1.6-3.3-4.7-8.1c0-0.5,0.3-1,0.8-1.5
	s0.7-1.1,0.7-1.8c0-0.5-0.1-0.9-0.4-1.1c-0.4-0.2-0.5-0.6-0.5-1.1c0-1.2,0.6-2.4,1.8-3.8c1.2-1.4,1.8-2.1,1.8-2.2
	c0-0.4-1.2-1.5-3.5-3.2c-2.3-1.8-3.5-2.9-3.5-3.2c0-1.9,0.7-4,2.1-6.4c0.4-0.7,1.6-2.4,3.4-5c0.4-0.5,1.3-1.6,2.8-3.1
	c1.3-1.3,2.3-2.7,3.1-4.3c0.6-1.3,1.8-2.3,3.8-3c1.6-0.5,2.5-1.1,2.5-1.7c0-0.2-0.4-0.5-1.1-0.7c-0.2-0.1-0.3-0.1-0.5-0.2
	c-1.1-0.4-2.2-0.5-3.2-0.5c-0.3,0-0.7,0-1.1,0c-2.7,0-4.6-0.2-5.9-0.4c-2.7-0.6-4.1-1.9-4.1-3.8l0.4-2.8c0-1.1-0.5-2-1.5-2.8
	c-1.1-0.9-1.6-1.6-1.6-2.2c0-0.2,0.2-0.6,0.7-1.1c0.4-0.5,0.6-1.1,0.6-1.8c0-0.9-0.9-1.8-2.7-2.5c-2-0.8-3.2-1.6-3.5-2.5
	c-0.2-1.5-0.5-2.7-0.7-3.5c-0.3-1-1.1-2.1-2.4-3.2c0.1-1.7,0.4-3.2,1-4.5c0.5-1.5,0.9-2.3,1.1-2.6c0.4-0.6,1.2-1.4,2.5-2.5
	c0.3-0.5,1.3-1.5,3.1-3.1c0.4-0.5,0.5-1,0.5-1.7c-0.1-0.5,0.1-0.9,0.4-1.1c0.6-0.4,1.6-1,3-1.8c1-0.7,1.5-1.5,1.5-2.5
	c0-1.9-0.5-2.9-1.6-2.9c-0.9,0-2.6,0.5-4.9,1.6c-2.7,1.2-5.1,2-7.1,2.4v-0.2c-0.4-1.4-1.1-2.6-2.3-3.6c-2-1.8-3.3-3.1-3.9-3.9
	c-0.7-0.9-1.7-2.4-3-4.4l-2-2.6c0-0.6,0.3-1,0.8-1.3c0.5-0.4,0.8-0.7,0.8-1.1c0-0.5-0.1-0.8-0.3-0.9c-0.2-0.1-0.6-0.2-1.2-0.2
	l-2.8,0.4h-0.9C63.1,45,63,44.7,63,44.3c0-0.8,0.7-1.6,2-2.5c1.3-0.8,2-2.1,1.9-4.1c-0.1-1.8,0.6-3.9,1.9-6.6
	C70.3,28.4,71,26.6,71,25.7z"/>
</svg>
